<?xml version="1.0" encoding="utf-8"?>
<!-- Generator: Adobe Illustrator 19.1.0, SVG Export Plug-In . SVG Version: 6.00 Build 0)  -->
<svg version="1.1" id="Layer_1" xmlns="http://www.w3.org/2000/svg" xmlns:xlink="http://www.w3.org/1999/xlink" x="0px" y="0px"
	 viewBox="0 0 400 400" enable-background="new 0 0 400 400" xml:space="preserve">
<metadata><?xpacket begin="﻿" id="W5M0MpCehiHzreSzNTczkc9d"?>
<x:xmpmeta xmlns:x="adobe:ns:meta/" x:xmptk="Adobe XMP Core 5.6-c067 79.157747, 2015/03/30-23:40:42        ">
   <rdf:RDF xmlns:rdf="http://www.w3.org/1999/02/22-rdf-syntax-ns#">
      <rdf:Description rdf:about=""/>
   </rdf:RDF>
</x:xmpmeta>
                                                                                                    
                                                                                                    
                                                                                                    
                                                                                                    
                                                                                                    
                                                                                                    
                                                                                                    
                                                                                                    
                                                                                                    
                                                                                                    
                                                                                                    
                                                                                                    
                                                                                                    
                                                                                                    
                                                                                                    
                                                                                                    
                                                                                                    
                                                                                                    
                                                                                                    
                                                                                                    
                           
<?xpacket end="w"?></metadata>
<path fill="#308BCB" d="M221.7,252.7c0,0-54.3,26.5-63.1,32.1c-8.9,5.6-12.3,8.1-16.7,14.5c-13.7,20.1-8.5,47.4,11.7,61
	c20.2,13.6,47.7,8.4,61.4-11.6c4.5-6.5,5.2-10.1,7.5-21.2c2.3-11,6.1-70.1,6.1-70.1C229.1,252.7,226,250.6,221.7,252.7z"/>
<path fill="#308BCB" d="M91.7,279.5c0,0-32.1,15.7-37.3,19c-5.3,3.3-7.2,4.8-9.8,8.6c-8.1,11.8-5,28,6.9,36
	c11.9,8.1,28.2,5,36.3-6.9c2.7-3.9,3.1-6,4.4-12.5c1.3-6.5,3.6-41.4,3.6-41.4C96.1,279.5,94.2,278.3,91.7,279.5z"/>
<g>
	<path fill="#F7AB1D" d="M182.9,146.1c0,40.5,32.2,73.3,71.8,73.3c39.7,0,71.8-32.8,71.8-73.3s-32.1-73.3-71.8-73.3
		C215.1,72.7,182.9,105.6,182.9,146.1z M383.7,134.4h-26.2c-6.1,0-11.2,5.1-11.2,11.4v0.5c0,6.3,5,11.4,11.2,11.4h26.2
		c6.2,0,11.2-5.1,11.2-11.4v-0.5C394.9,139.5,389.9,134.4,383.7,134.4z M325.1,22.3l-0.5-0.3c-5.3-3.1-12.2-1.3-15.3,4.2l-13.1,23.2
		c-3.1,5.4-1.2,12.5,4.1,15.6l0.5,0.3c5.3,3.1,12.2,1.3,15.3-4.2l13.1-23.2C332.2,32.4,330.4,25.4,325.1,22.3z M316,231
		c-3.1-5.4-9.9-7.3-15.3-4.2l-0.5,0.3c-5.3,3.1-7.2,10.2-4.1,15.6l13.1,23.2c3.1,5.4,9.9,7.3,15.3,4.2l0.5-0.3
		c5.3-3.1,7.2-10.2,4.1-15.6L316,231z M193.5,61.1c3.1,5.4,9.9,7.3,15.3,4.2l0.5-0.3c5.3-3.1,7.2-10.1,4.1-15.6l-13.1-23.2
		c-3.1-5.4-9.9-7.3-15.3-4.2l-0.5,0.3c-5.3,3.1-7.2,10.1-4.1,15.6L193.5,61.1z M372.2,201.8l-22.7-13.4c-5.3-3.1-12.2-1.3-15.3,4.2
		l-0.3,0.5c-3.1,5.4-1.2,12.4,4.1,15.6l22.7,13.4c5.3,3.1,12.2,1.3,15.3-4.2l0.3-0.5C379.3,211.9,377.5,204.9,372.2,201.8z
		 M334.2,99.6c3.1,5.4,9.9,7.3,15.3,4.2l22.7-13.4c5.3-3.1,7.2-10.2,4.1-15.6l-0.3-0.5c-3.1-5.4-9.9-7.3-15.3-4.2L338,83.5
		c-5.3,3.2-7.2,10.2-4.1,15.6L334.2,99.6z M254.5,52.6h0.5c6.1,0,11.2-5.1,11.2-11.4V14.4c0-6.3-5-11.4-11.2-11.4h-0.5
		c-6.1,0-11.2,5.1-11.2,11.4v26.8C243.3,47.5,248.3,52.6,254.5,52.6z M255,239.5h-0.5c-6.1,0-11.2,5.1-11.2,11.4v26.8
		c0,6.3,5,11.4,11.2,11.4h0.5c6.1,0,11.2-5.1,11.2-11.4v-26.8C266.2,244.7,261.2,239.5,255,239.5z"/>
	<path fill="#D7D8D8" d="M236.3,101.1c-5,0-9.8,0.7-14.4,1.9c-8.6-25.4-32-43.7-59.5-43.7c-33.7,0-61.2,27.4-63,61.8
		c-2.1-0.3-4.1-0.5-6.3-0.5c-26.2,0-47.4,22-47.4,49.2c0,27.2,21.2,49.2,47.4,49.2h143.2c31.4,0,56.9-26.4,56.9-59
		C293.2,127.5,267.7,101.1,236.3,101.1z"/>
</g>
</svg>
